<svg version="1.1" xml:space="preserve" xmlns="http://www.w3.org/2000/svg" viewBox="0 0 640 640">
    <!-- <rect width="640" height="640" rx="100" fill="#F2EFE9" /> -->
    <path d="M328.2 31.1a156 156 0 0 0-55.4 10.1A172.8 172.8 0 0 0 222 70.7a208.5 208.5 0 0 0-42.3 46.4 253.7 253.7 0 0 0-30.2 59.7 294 294 0 0 0-15.8 68c-.4 5.3-.7 10.6-.9 16h-29a29.6 29.6 0 0 0-19.4 7.2c-2.5 2.3-4.5 5-5.9 8.1a23 23 0 0 0 6 27c2.5 2.4 5.5 4.2 8.8 5.5 3.3 1.2 6.8 1.8 10.4 1.8l1.6-.2H223.5a29.6 29.6 0 0 0 19.3-7.2 23 23 0 0 0 0-35.1 26.8 26.8 0 0 0-10.9-6 29.5 29.5 0 0 0-9.2-1.1h-26.3a204.6 204.6 0 0 1 17.9-81.8c3-6.5 6.5-12.7 10.3-18.6 1-1.9 2-3.8 3.2-5.7a139.6 139.6 0 0 1 36-37.8 124.8 124.8 0 0 1 44-20.1A108.6 108.6 0 0 1 381 106a122.7 122.7 0 0 1 29.7 20.5 144.3 144.3 0 0 1 24.7 29 170.4 170.4 0 0 1 18.1 35.9 194.3 194.3 0 0 1 11.8 50.9 211.4 211.4 0 0 1 1 18.2h-28.5a29.6 29.6 0 0 0-19.3 7.3 23 23 0 0 0 0 35.1 29.6 29.6 0 0 0 19.3 7.3l1.6-.3H557l.7.1A29.6 29.6 0 0 0 577 303c2.5-2.3 4.5-5 5.9-8.1a23 23 0 0 0-6-27 26.8 26.8 0 0 0-10.8-6.1 29.5 29.5 0 0 0-9.2-1h-32.7a315.5 315.5 0 0 0-1.6-18.1 310.2 310.2 0 0 0-17.8-72 278.2 278.2 0 0 0-27.4-52.6 239 239 0 0 0-28.8-34.7 207.1 207.1 0 0 0-33.8-26.7 180.4 180.4 0 0 0-37.3-17.5 162.5 162.5 0 0 0-49.3-8z" fill="#363636"/>
    <path d="M391.8 175a33 38 32 0 0-13.4 3.2 33 38 32 0 0-11.9 8.1 33 38 32 0 0-8.6 12 33 38 32 0 0-4 14.1 33 38 32 0 0 1.2 14 33 38 32 0 0 6.3 11.7 33 38 32 0 0 10.3 7.7 33 38 32 0 0 5.5 1 34.5 30 37.4 0 1-6-6.8 34.5 30 37.4 0 1-4.6-12 34.5 30 37.4 0 1 .4-12.2 34.5 30 37.4 0 1 5.2-10.5 34.5 30 37.4 0 1 9.3-7.3 34.5 30 37.4 0 1 12-2.8 34.5 30 37.4 0 1 12.8 2 34.5 30 37.4 0 1 11.7 6.6 34.5 30 37.4 0 1 4.5 5 33 38 32 0 0 0-2.7 33 38 32 0 0-.3-4.6 33 38 32 0 0-1-4.5 33 38 32 0 0-1.6-4.3 33 38 32 0 0-2-4 33 38 32 0 0-2.7-3.5 33 38 32 0 0-3-3 33 38 32 0 0-3.5-2.6 33 38 32 0 0-3.8-2 33 38 32 0 0-12.8-2.5z" fill="#363636"/>
    <path d="m123.2 329.1-1.1 5.5a288.8 288.8 0 0 0 7.6 114.5 272 272 0 0 0 29.7 68.5 240 240 0 0 0 46.1 54.4 206.1 206.1 0 0 0 58.2 35 183 183 0 0 0 64.5 12 178 178 0 0 0 64.6-12 192.6 192.6 0 0 0 58.2-35 222.4 222.4 0 0 0 46.1-54.4 257 257 0 0 0 29.7-68.5 283 283 0 0 0 7.6-37.5c.5-4.8.8-9.6 1-14.4v-54a287.6 287.6 0 0 0-1.8-14H135.9Zm208 52.4a47.5 47.5 0 0 1 38.2 19.5 45 45 0 0 1 6 39.6c-1.1 2.5-2.4 5-4 7.3-.7 1.8-1.6 3.6-2.7 5.2a45.7 45.7 0 0 1-10.2 10c-3 2-6.3 3.6-9.7 4.9h.6c.6 3.4 1.4 7 2.3 10.5l2.4 10.7a86.8 86.8 0 0 1 1.8 14.9c0 1.5-.2 3-.4 4.3a33.6 33.6 0 0 1-4 4l-4.4 3.6-4.4 3.6a27.8 27.8 0 0 0-4.7 5l-.6 1.8a4.6 4.6 0 0 0 .6 3.5c.3.6.8 1.2 1.4 1.8a31.5 31.5 0 0 0 5.6 3.7l4.4 2 2.7 2.2c1 .7 1.8 1.4 2.5 2.3l1 1.4a5.5 5.5 0 0 1 .5 3.4l-.6 2.2-48.4 1.6v-85.4h1c-1.4-.6-2.7-1.2-4-2-4-2.8-7.4-6.1-10.3-10-1-1.6-2-3.4-2.7-5.2a44.7 44.7 0 0 1-3.9-7.3A44.1 44.1 0 0 1 304 390a46.8 46.8 0 0 1 27.3-8.6z" fill="#F08700"/>
</svg>
